<svg width="314" height="318" viewBox="0 0 314 318" fill="none" xmlns="http://www.w3.org/2000/svg">
<rect x="50.5664" width="263.173" height="317.744" rx="7.04142" fill="#F3F3F3"/>
<rect x="50.5664" width="263.173" height="108.262" rx="7.04142" fill="url(#paint0_linear_745_1857)"/>
<g filter="url(#filter0_d_745_1857)">
<circle cx="48.8068" cy="146.99" r="14.963" fill="#C7D7F1"/>
</g>
<path d="M42.2102 144.622C42.1689 143.803 42.3856 142.994 42.8239 142.316L42.9381 142.149L42.9476 142.14L43.0268 142.047L43.1099 141.952L43.1193 141.942C43.2779 141.78 43.4534 141.637 43.6428 141.515L43.6963 141.481L43.7498 141.45L43.8756 141.377C43.9266 141.353 43.9819 141.324 44.0329 141.3C44.07 141.286 44.1071 141.267 44.1443 141.252C44.2141 141.223 44.2883 141.194 44.3626 141.17C44.3877 141.158 44.4142 141.148 44.4412 141.141L44.4713 141.129L44.5041 141.117C44.8426 141.016 45.1906 140.946 45.5423 140.914L45.5059 140.919V140.189C45.5059 139.897 45.7418 139.66 46.0336 139.66C46.3255 139.66 46.5621 139.897 46.5621 140.189V142.495C46.5621 142.787 46.3255 143.025 46.0336 143.025C45.7418 143.025 45.5059 142.787 45.5059 142.495L45.5059 141.962C45.1594 141.996 44.8192 142.083 44.4966 142.219C43.664 142.594 43.2669 143.307 43.2293 144.438L43.2263 144.62V144.904H54.3873V144.612C54.4086 144.089 54.3036 143.568 54.0808 143.097C53.8669 142.694 53.5247 142.382 53.1113 142.212C52.848 142.099 52.5723 142.02 52.2905 141.977L52.1072 141.954L52.1072 142.492C52.1072 142.783 51.8709 143.019 51.5791 143.019C51.2873 143.019 51.051 142.783 51.051 142.492L51.051 141.915L46.5672 141.915V140.866L51.051 140.866L51.051 140.186C51.0484 139.895 51.2834 139.657 51.5752 139.655C51.8669 139.653 52.1052 139.887 52.1072 140.178L52.1076 140.915C52.3639 140.94 52.6181 140.985 52.8682 141.048L53.1169 141.119C53.1371 141.123 53.1522 141.128 53.1799 141.138C53.2075 141.147 53.2308 141.157 53.2585 141.166C53.3321 141.19 53.4007 141.219 53.4718 141.249C53.5127 141.263 53.5504 141.282 53.5825 141.296C53.6379 141.32 53.6945 141.349 53.7398 141.373C53.7864 141.397 53.8311 141.424 53.8701 141.446C53.9091 141.467 53.9393 141.491 53.972 141.511C54.1145 141.603 54.2499 141.707 54.3764 141.821L54.4999 141.939L54.5055 141.948L54.5918 142.04L54.6729 142.136L54.6773 142.145C55.1518 142.802 55.407 143.599 55.4079 144.415L55.4027 144.62V144.904H55.4079V150.591C55.4079 153.071 54.0227 154.324 51.2777 154.324H46.3291C43.5903 154.324 42.2052 153.071 42.2052 150.591V144.904H42.2102V144.622ZM51.8255 150.104C51.4855 150.104 51.2147 150.383 51.2147 150.727C51.221 151.072 51.4918 151.351 51.8255 151.351C52.1591 151.351 52.4299 151.072 52.4299 150.727C52.4299 150.383 52.1591 150.104 51.8255 150.104ZM48.8097 150.098C48.4697 150.104 48.199 150.383 48.199 150.727C48.199 151.072 48.476 151.351 48.8097 151.351C49.1434 151.351 49.4141 151.072 49.4141 150.721C49.4078 150.383 49.1434 150.104 48.8097 150.098ZM45.7876 150.098C45.4476 150.098 45.1769 150.383 45.1832 150.727C45.1832 151.072 45.4539 151.351 45.7876 151.351C46.1213 151.351 46.392 151.065 46.392 150.721C46.392 150.377 46.1213 150.098 45.7876 150.098ZM51.8255 147.442C51.4855 147.442 51.221 147.721 51.221 148.065C51.221 148.41 51.4918 148.689 51.8255 148.689C52.1591 148.689 52.4299 148.41 52.4299 148.065C52.4299 147.721 52.1591 147.442 51.8255 147.442ZM48.8097 147.436C48.4697 147.442 48.199 147.721 48.199 148.065C48.199 148.41 48.476 148.689 48.8097 148.689C49.1434 148.689 49.4141 148.41 49.4141 148.059C49.4141 147.721 49.1434 147.442 48.8097 147.436ZM45.7939 147.436C45.4539 147.436 45.1832 147.721 45.1832 148.065C45.1832 148.41 45.4539 148.689 45.7876 148.689C46.1276 148.689 46.3983 148.403 46.392 148.059C46.392 147.715 46.1213 147.436 45.7939 147.436Z" fill="white"/>
<g filter="url(#filter1_d_745_1857)">
<rect x="77.8527" y="129.386" width="193.639" height="35.2071" rx="3.52071" fill="white"/>
</g>
<path d="M92.5657 150.709V144.307H96.6665V145.279H93.7253V147.017H96.3852V147.989H93.7253V150.709H92.5657ZM99.446 150.802C98.9646 150.802 98.5489 150.702 98.1989 150.502C97.8509 150.3 97.5831 150.015 97.3956 149.646C97.208 149.275 97.1143 148.838 97.1143 148.336C97.1143 147.842 97.208 147.409 97.3956 147.036C97.5852 146.661 97.8498 146.369 98.1895 146.161C98.5291 145.95 98.9282 145.845 99.3866 145.845C99.6825 145.845 99.9617 145.893 100.224 145.989C100.489 146.083 100.722 146.229 100.924 146.427C101.129 146.624 101.289 146.877 101.406 147.183C101.522 147.487 101.581 147.85 101.581 148.271V148.618H97.6456V147.855H100.496C100.494 147.638 100.447 147.445 100.356 147.277C100.264 147.106 100.136 146.971 99.9711 146.873C99.8086 146.776 99.6189 146.727 99.4022 146.727C99.1709 146.727 98.9678 146.783 98.7927 146.895C98.6177 147.006 98.4812 147.152 98.3833 147.333C98.2874 147.512 98.2385 147.709 98.2364 147.924V148.589C98.2364 148.869 98.2874 149.108 98.3895 149.308C98.4916 149.506 98.6344 149.658 98.8177 149.765C99.0011 149.869 99.2157 149.921 99.4616 149.921C99.6262 149.921 99.7752 149.898 99.9086 149.852C100.042 149.804 100.158 149.734 100.256 149.643C100.353 149.551 100.427 149.438 100.477 149.302L101.534 149.421C101.467 149.7 101.34 149.944 101.153 150.152C100.967 150.359 100.73 150.519 100.44 150.634C100.15 150.746 99.819 150.802 99.446 150.802ZM102.588 150.709V144.307H103.72V146.702H103.766C103.825 146.585 103.907 146.461 104.013 146.33C104.12 146.196 104.263 146.083 104.445 145.989C104.626 145.893 104.857 145.845 105.139 145.845C105.509 145.845 105.844 145.94 106.142 146.13C106.442 146.317 106.679 146.595 106.855 146.964C107.032 147.331 107.12 147.781 107.12 148.314C107.12 148.842 107.034 149.29 106.861 149.658C106.688 150.027 106.452 150.309 106.154 150.502C105.856 150.696 105.519 150.793 105.142 150.793C104.867 150.793 104.638 150.747 104.457 150.655C104.276 150.564 104.13 150.453 104.02 150.324C103.911 150.193 103.827 150.069 103.766 149.952H103.701V150.709H102.588ZM103.698 148.308C103.698 148.619 103.741 148.891 103.829 149.124C103.919 149.357 104.047 149.54 104.213 149.671C104.382 149.8 104.586 149.865 104.826 149.865C105.076 149.865 105.285 149.798 105.454 149.665C105.623 149.529 105.75 149.345 105.836 149.111C105.923 148.876 105.967 148.608 105.967 148.308C105.967 148.01 105.924 147.746 105.839 147.514C105.753 147.283 105.626 147.102 105.457 146.97C105.289 146.839 105.078 146.773 104.826 146.773C104.584 146.773 104.379 146.837 104.21 146.964C104.041 147.091 103.913 147.269 103.826 147.499C103.74 147.728 103.698 147.998 103.698 148.308ZM110.253 150.709V149.871L112.475 147.692C112.688 147.478 112.865 147.287 113.007 147.12C113.148 146.954 113.255 146.792 113.325 146.636C113.396 146.48 113.432 146.313 113.432 146.136C113.432 145.934 113.386 145.761 113.294 145.617C113.202 145.471 113.076 145.359 112.916 145.279C112.755 145.2 112.573 145.161 112.369 145.161C112.158 145.161 111.974 145.204 111.816 145.292C111.657 145.377 111.534 145.499 111.447 145.658C111.361 145.816 111.319 146.005 111.319 146.223H110.215C110.215 145.817 110.308 145.464 110.494 145.164C110.679 144.864 110.934 144.631 111.259 144.467C111.586 144.302 111.962 144.22 112.385 144.22C112.814 144.22 113.191 144.3 113.516 144.46C113.841 144.621 114.093 144.841 114.272 145.12C114.454 145.399 114.544 145.718 114.544 146.076C114.544 146.316 114.499 146.552 114.407 146.783C114.315 147.014 114.154 147.27 113.922 147.552C113.693 147.833 113.371 148.174 112.957 148.574L111.853 149.696V149.74H114.641V150.709H110.253ZM117.995 150.796C117.53 150.796 117.118 150.718 116.757 150.562C116.399 150.405 116.118 150.192 115.913 149.921C115.711 149.648 115.611 149.339 115.613 148.993C115.611 148.724 115.67 148.477 115.788 148.252C115.907 148.027 116.068 147.839 116.27 147.689C116.474 147.537 116.701 147.44 116.951 147.399V147.355C116.622 147.282 116.355 147.114 116.151 146.852C115.949 146.587 115.849 146.282 115.851 145.936C115.849 145.607 115.94 145.313 116.126 145.054C116.311 144.796 116.566 144.593 116.889 144.445C117.212 144.295 117.58 144.22 117.995 144.22C118.406 144.22 118.771 144.295 119.092 144.445C119.415 144.593 119.669 144.796 119.855 145.054C120.042 145.313 120.136 145.607 120.136 145.936C120.136 146.282 120.033 146.587 119.827 146.852C119.622 147.114 119.359 147.282 119.036 147.355V147.399C119.286 147.44 119.511 147.537 119.711 147.689C119.913 147.839 120.074 148.027 120.192 148.252C120.313 148.477 120.374 148.724 120.374 148.993C120.374 149.339 120.272 149.648 120.067 149.921C119.863 150.192 119.582 150.405 119.223 150.562C118.867 150.718 118.458 150.796 117.995 150.796ZM117.995 149.902C118.235 149.902 118.443 149.862 118.62 149.78C118.797 149.697 118.935 149.58 119.033 149.43C119.131 149.28 119.181 149.107 119.183 148.911C119.181 148.707 119.128 148.527 119.023 148.371C118.921 148.212 118.781 148.088 118.601 147.999C118.424 147.909 118.222 147.864 117.995 147.864C117.766 147.864 117.562 147.909 117.382 147.999C117.203 148.088 117.062 148.212 116.957 148.371C116.855 148.527 116.805 148.707 116.807 148.911C116.805 149.107 116.853 149.28 116.951 149.43C117.049 149.578 117.187 149.694 117.364 149.777C117.543 149.861 117.753 149.902 117.995 149.902ZM117.995 146.986C118.191 146.986 118.364 146.946 118.514 146.867C118.666 146.788 118.786 146.678 118.873 146.536C118.961 146.394 119.006 146.231 119.008 146.045C119.006 145.862 118.962 145.701 118.876 145.564C118.791 145.424 118.672 145.317 118.52 145.242C118.368 145.165 118.193 145.126 117.995 145.126C117.793 145.126 117.615 145.165 117.461 145.242C117.308 145.317 117.19 145.424 117.104 145.564C117.021 145.701 116.98 145.862 116.982 146.045C116.98 146.231 117.022 146.394 117.107 146.536C117.195 146.676 117.315 146.786 117.467 146.867C117.621 146.946 117.797 146.986 117.995 146.986ZM122.553 149.833L122.512 150.177C122.483 150.44 122.431 150.707 122.356 150.977C122.283 151.25 122.206 151.501 122.125 151.731C122.044 151.96 121.978 152.14 121.928 152.271H121.165C121.194 152.144 121.234 151.971 121.284 151.753C121.336 151.534 121.386 151.288 121.434 151.015C121.482 150.742 121.514 150.465 121.531 150.184L121.553 149.833H122.553ZM123.808 150.709V149.871L126.03 147.692C126.243 147.478 126.42 147.287 126.562 147.12C126.703 146.954 126.81 146.792 126.88 146.636C126.951 146.48 126.987 146.313 126.987 146.136C126.987 145.934 126.941 145.761 126.849 145.617C126.757 145.471 126.631 145.359 126.471 145.279C126.311 145.2 126.128 145.161 125.924 145.161C125.714 145.161 125.529 145.204 125.371 145.292C125.212 145.377 125.089 145.499 125.002 145.658C124.916 145.816 124.874 146.005 124.874 146.223H123.77C123.77 145.817 123.863 145.464 124.049 145.164C124.234 144.864 124.489 144.631 124.814 144.467C125.142 144.302 125.517 144.22 125.94 144.22C126.369 144.22 126.746 144.3 127.071 144.46C127.396 144.621 127.648 144.841 127.827 145.12C128.009 145.399 128.099 145.718 128.099 146.076C128.099 146.316 128.054 146.552 127.962 146.783C127.87 147.014 127.709 147.27 127.477 147.552C127.248 147.833 126.926 148.174 126.512 148.574L125.408 149.696V149.74H128.196V150.709H123.808ZM131.641 150.831C131.126 150.831 130.684 150.7 130.315 150.44C129.949 150.177 129.666 149.799 129.468 149.305C129.273 148.809 129.175 148.212 129.175 147.514C129.177 146.816 129.276 146.222 129.472 145.733C129.67 145.241 129.952 144.866 130.319 144.607C130.687 144.349 131.128 144.22 131.641 144.22C132.153 144.22 132.594 144.349 132.963 144.607C133.332 144.866 133.614 145.241 133.81 145.733C134.008 146.224 134.107 146.818 134.107 147.514C134.107 148.214 134.008 148.812 133.81 149.308C133.614 149.802 133.332 150.179 132.963 150.44C132.596 150.7 132.155 150.831 131.641 150.831ZM131.641 149.852C132.041 149.852 132.357 149.655 132.588 149.261C132.821 148.866 132.938 148.283 132.938 147.514C132.938 147.006 132.885 146.579 132.778 146.233C132.672 145.887 132.522 145.626 132.328 145.451C132.135 145.274 131.905 145.186 131.641 145.186C131.243 145.186 130.928 145.384 130.697 145.779C130.466 146.173 130.349 146.752 130.347 147.514C130.345 148.025 130.396 148.454 130.5 148.802C130.606 149.15 130.756 149.413 130.95 149.59C131.144 149.765 131.374 149.852 131.641 149.852ZM135.145 150.709V149.871L137.368 147.692C137.58 147.478 137.757 147.287 137.899 147.12C138.041 146.954 138.147 146.792 138.218 146.636C138.289 146.48 138.324 146.313 138.324 146.136C138.324 145.934 138.278 145.761 138.187 145.617C138.095 145.471 137.969 145.359 137.808 145.279C137.648 145.2 137.466 145.161 137.261 145.161C137.051 145.161 136.867 145.204 136.708 145.292C136.55 145.377 136.427 145.499 136.339 145.658C136.254 145.816 136.211 146.005 136.211 146.223H135.108C135.108 145.817 135.201 145.464 135.386 145.164C135.572 144.864 135.827 144.631 136.152 144.467C136.479 144.302 136.854 144.22 137.277 144.22C137.706 144.22 138.083 144.3 138.409 144.46C138.734 144.621 138.986 144.841 139.165 145.12C139.346 145.399 139.437 145.718 139.437 146.076C139.437 146.316 139.391 146.552 139.299 146.783C139.208 147.014 139.046 147.27 138.815 147.552C138.586 147.833 138.264 148.174 137.849 148.574L136.746 149.696V149.74H139.534V150.709H135.145ZM142.978 150.831C142.464 150.831 142.022 150.7 141.653 150.44C141.286 150.177 141.004 149.799 140.806 149.305C140.61 148.809 140.512 148.212 140.512 147.514C140.514 146.816 140.613 146.222 140.809 145.733C141.007 145.241 141.289 144.866 141.656 144.607C142.025 144.349 142.466 144.22 142.978 144.22C143.491 144.22 143.932 144.349 144.3 144.607C144.669 144.866 144.952 145.241 145.147 145.733C145.345 146.224 145.444 146.818 145.444 147.514C145.444 148.214 145.345 148.812 145.147 149.308C144.952 149.802 144.669 150.179 144.3 150.44C143.934 150.7 143.493 150.831 142.978 150.831ZM142.978 149.852C143.378 149.852 143.694 149.655 143.925 149.261C144.159 148.866 144.275 148.283 144.275 147.514C144.275 147.006 144.222 146.579 144.116 146.233C144.01 145.887 143.86 145.626 143.666 145.451C143.472 145.274 143.243 145.186 142.978 145.186C142.58 145.186 142.266 145.384 142.034 145.779C141.803 146.173 141.686 146.752 141.684 147.514C141.682 148.025 141.733 148.454 141.837 148.802C141.944 149.15 142.094 149.413 142.287 149.59C142.481 149.765 142.711 149.852 142.978 149.852ZM151.27 144.307V150.709H150.11V145.436H150.073L148.575 146.392V145.329L150.166 144.307H151.27ZM153.129 150.709L155.852 145.32V145.276H152.692V144.307H157.052V145.298L154.333 150.709H153.129ZM158.47 149.94C158.28 149.94 158.117 149.873 157.982 149.74C157.847 149.604 157.78 149.442 157.782 149.252C157.78 149.065 157.847 148.904 157.982 148.771C158.117 148.637 158.28 148.571 158.47 148.571C158.653 148.571 158.812 148.637 158.948 148.771C159.085 148.904 159.155 149.065 159.157 149.252C159.155 149.379 159.122 149.495 159.057 149.599C158.995 149.703 158.911 149.787 158.807 149.849C158.705 149.909 158.593 149.94 158.47 149.94ZM158.47 146.767C158.28 146.767 158.117 146.701 157.982 146.567C157.847 146.432 157.78 146.269 157.782 146.08C157.78 145.892 157.847 145.732 157.982 145.598C158.117 145.463 158.28 145.395 158.47 145.395C158.653 145.395 158.812 145.463 158.948 145.598C159.085 145.732 159.155 145.892 159.157 146.08C159.155 146.205 159.122 146.319 159.057 146.423C158.995 146.528 158.911 146.611 158.807 146.673C158.705 146.736 158.593 146.767 158.47 146.767ZM162.538 150.796C162.122 150.796 161.749 150.718 161.419 150.562C161.09 150.403 160.829 150.187 160.635 149.912C160.443 149.637 160.341 149.322 160.329 148.968H161.454C161.475 149.23 161.588 149.445 161.795 149.612C162.001 149.776 162.249 149.858 162.538 149.858C162.766 149.858 162.968 149.806 163.145 149.702C163.322 149.598 163.462 149.453 163.564 149.268C163.666 149.082 163.716 148.871 163.714 148.633C163.716 148.391 163.665 148.177 163.56 147.989C163.456 147.802 163.314 147.655 163.132 147.549C162.951 147.44 162.743 147.386 162.507 147.386C162.315 147.384 162.127 147.419 161.941 147.492C161.756 147.565 161.609 147.661 161.501 147.78L160.454 147.608L160.788 144.307H164.501V145.276H161.748L161.563 146.973H161.601C161.719 146.834 161.887 146.718 162.104 146.627C162.321 146.533 162.558 146.486 162.817 146.486C163.204 146.486 163.55 146.578 163.854 146.761C164.159 146.942 164.398 147.192 164.573 147.511C164.748 147.83 164.836 148.195 164.836 148.605C164.836 149.028 164.738 149.405 164.542 149.737C164.348 150.066 164.078 150.325 163.732 150.515C163.389 150.702 162.991 150.796 162.538 150.796ZM166.117 150.709L168.84 145.32V145.276H165.68V144.307H170.04V145.298L167.321 150.709H166.117Z" fill="#495767"/>
<rect x="88.4161" y="185.717" width="141.709" height="5.28106" rx="2.64053" fill="#324354"/>
<rect x="88.4163" y="202.441" width="58.0917" height="5.28106" rx="2.64053" fill="#C7D7F1"/>
<rect x="88.4163" y="219.164" width="22.0044" height="5.28106" rx="2.64053" fill="#F9AF42"/>
<rect x="88.4163" y="230.606" width="30.8062" height="5.28106" rx="2.64053" fill="#F9AF42"/>
<rect x="125.383" y="230.606" width="17.6035" height="5.28106" rx="2.64053" fill="#F9AF42"/>
<rect x="116.58" y="219.164" width="40.4882" height="5.28106" rx="2.64053" fill="#F9AF42"/>
<rect x="163.231" y="219.164" width="30.8062" height="5.28106" rx="2.64053" fill="#F9AF42"/>
<rect x="200.197" y="219.164" width="17.6035" height="5.28106" rx="2.64053" fill="#F9AF42"/>
<path d="M274.089 257.012H79.6588C73.3504 257.012 68.1719 261.189 68.1719 266.277V297.036C68.1719 302.125 73.3504 306.302 79.6588 306.302H274.089C280.398 306.302 285.576 302.125 285.576 297.036V266.277C285.576 261.189 280.398 257.012 274.089 257.012Z" fill="white"/>
<path d="M112.562 299.887C121.971 299.887 129.599 292.259 129.599 282.85C129.599 273.441 121.971 265.814 112.562 265.814C103.153 265.814 95.5254 273.441 95.5254 282.85C95.5254 292.259 103.153 299.887 112.562 299.887Z" fill="#489A4D"/>
<path d="M108.705 290.945C108.328 290.945 107.952 290.851 107.669 290.569L101.927 284.827C101.363 284.262 101.363 283.415 101.927 282.851C102.492 282.286 103.339 282.286 103.904 282.851L108.705 287.651L121.129 275.038C121.694 274.473 122.541 274.473 123.106 275.038C123.671 275.603 123.671 276.45 123.106 277.015L109.646 290.475C109.363 290.851 109.081 290.945 108.705 290.945Z" fill="white"/>
<path d="M256.765 274.929H148.144C147.579 274.929 147.203 274.552 147.203 273.987C147.203 273.423 147.579 273.046 148.144 273.046H256.765C257.33 273.046 257.706 273.423 257.706 273.987C257.706 274.552 257.236 274.929 256.765 274.929Z" fill="#808594"/>
<path d="M239.352 283.853H148.144C147.579 283.853 147.203 283.476 147.203 282.911C147.203 282.346 147.579 281.97 148.144 281.97H239.352C239.917 281.97 240.293 282.346 240.293 282.911C240.293 283.476 239.823 283.853 239.352 283.853Z" fill="#808594"/>
<path d="M215.162 292.654H147.897C147.48 292.654 147.203 292.302 147.203 291.774C147.203 291.246 147.48 290.894 147.897 290.894H215.162C215.579 290.894 215.857 291.246 215.857 291.774C215.857 292.302 215.509 292.654 215.162 292.654Z" fill="#808594"/>
<g filter="url(#filter2_d_745_1857)">
<rect x="18" y="17.6035" width="274.615" height="72.1745" rx="8.80177" fill="white"/>
</g>
<path d="M48.9039 45.0613H47.0335C46.9802 44.7546 46.8818 44.4828 46.7385 44.2461C46.5951 44.0061 46.4168 43.8027 46.2034 43.636C45.99 43.4693 45.7466 43.3443 45.4732 43.2609C45.2032 43.1742 44.9115 43.1309 44.5981 43.1309C44.0413 43.1309 43.5478 43.2709 43.1178 43.551C42.6877 43.8277 42.3509 44.2345 42.1076 44.7712C41.8642 45.3047 41.7425 45.9565 41.7425 46.7266C41.7425 47.5101 41.8642 48.1702 42.1076 48.707C42.3543 49.2405 42.691 49.6439 43.1178 49.9173C43.5478 50.1873 44.0396 50.3223 44.5931 50.3223C44.8998 50.3223 45.1865 50.2823 45.4532 50.2023C45.7233 50.119 45.965 49.9973 46.1784 49.8373C46.3951 49.6772 46.5768 49.4805 46.7235 49.2471C46.8735 49.0138 46.9769 48.747 47.0335 48.447L48.9039 48.457C48.8339 48.9437 48.6822 49.4005 48.4488 49.8272C48.2188 50.254 47.9171 50.6307 47.5436 50.9575C47.1702 51.2809 46.7335 51.5343 46.2334 51.7176C45.7333 51.8977 45.1782 51.9877 44.568 51.9877C43.6679 51.9877 42.8644 51.7793 42.1576 51.3626C41.4508 50.9458 40.894 50.344 40.4872 49.5572C40.0805 48.7704 39.8771 47.8268 39.8771 46.7266C39.8771 45.6231 40.0821 44.6795 40.4922 43.8961C40.9023 43.1092 41.4608 42.5074 42.1676 42.0907C42.8744 41.6739 43.6745 41.4656 44.568 41.4656C45.1382 41.4656 45.6683 41.5456 46.1584 41.7056C46.6485 41.8656 47.0852 42.1007 47.4686 42.4108C47.852 42.7175 48.1671 43.0942 48.4138 43.541C48.6639 43.9844 48.8272 44.4912 48.9039 45.0613ZM53.8737 51.9977C53.1235 51.9977 52.4734 51.8327 51.9233 51.5026C51.3732 51.1725 50.9464 50.7108 50.643 50.1173C50.343 49.5239 50.1929 48.8304 50.1929 48.0369C50.1929 47.2434 50.343 46.5483 50.643 45.9515C50.9464 45.3547 51.3732 44.8913 51.9233 44.5612C52.4734 44.2311 53.1235 44.0661 53.8737 44.0661C54.6238 44.0661 55.274 44.2311 55.8241 44.5612C56.3742 44.8913 56.7993 45.3547 57.0993 45.9515C57.4027 46.5483 57.5544 47.2434 57.5544 48.0369C57.5544 48.8304 57.4027 49.5239 57.0993 50.1173C56.7993 50.7108 56.3742 51.1725 55.8241 51.5026C55.274 51.8327 54.6238 51.9977 53.8737 51.9977ZM53.8837 50.5474C54.2904 50.5474 54.6305 50.4357 54.9039 50.2123C55.1773 49.9856 55.3806 49.6822 55.514 49.3021C55.6507 48.9221 55.719 48.4986 55.719 48.0319C55.719 47.5618 55.6507 47.1367 55.514 46.7566C55.3806 46.3732 55.1773 46.0682 54.9039 45.8414C54.6305 45.6147 54.2904 45.5014 53.8837 45.5014C53.4669 45.5014 53.1202 45.6147 52.8435 45.8414C52.5701 46.0682 52.365 46.3732 52.2283 46.7566C52.095 47.1367 52.0283 47.5618 52.0283 48.0319C52.0283 48.4986 52.095 48.9221 52.2283 49.3021C52.365 49.6822 52.5701 49.9856 52.8435 50.2123C53.1202 50.4357 53.4669 50.5474 53.8837 50.5474ZM59.091 51.8477V44.1661H60.8213V45.4714H60.9113C61.0714 45.0313 61.3364 44.6879 61.7065 44.4412C62.0766 44.1911 62.5183 44.0661 63.0318 44.0661C63.5519 44.0661 63.9903 44.1928 64.347 44.4462C64.7071 44.6962 64.9605 45.038 65.1072 45.4714H65.1872C65.3572 45.0446 65.644 44.7046 66.0474 44.4512C66.4541 44.1944 66.9359 44.0661 67.4927 44.0661C68.1995 44.0661 68.7763 44.2895 69.223 44.7362C69.6698 45.183 69.8932 45.8348 69.8932 46.6916V51.8477H68.0778V46.9717C68.0778 46.4949 67.9511 46.1465 67.6977 45.9265C67.4443 45.7031 67.1343 45.5914 66.7675 45.5914C66.3308 45.5914 65.989 45.7281 65.7423 46.0015C65.4989 46.2715 65.3772 46.6233 65.3772 47.0567V51.8477H63.6019V46.8967C63.6019 46.4999 63.4819 46.1832 63.2418 45.9465C63.0051 45.7098 62.695 45.5914 62.3116 45.5914C62.0516 45.5914 61.8149 45.6581 61.6015 45.7914C61.3881 45.9215 61.2181 46.1065 61.0914 46.3465C60.9647 46.5833 60.9013 46.86 60.9013 47.1767V51.8477H59.091ZM71.7298 51.8477V44.1661H73.4601V45.4714H73.5501C73.7102 45.0313 73.9752 44.6879 74.3453 44.4412C74.7154 44.1911 75.1571 44.0661 75.6706 44.0661C76.1907 44.0661 76.6291 44.1928 76.9858 44.4462C77.3459 44.6962 77.5993 45.038 77.746 45.4714H77.826C77.996 45.0446 78.2828 44.7046 78.6862 44.4512C79.0929 44.1944 79.5747 44.0661 80.1315 44.0661C80.8383 44.0661 81.4151 44.2895 81.8618 44.7362C82.3086 45.183 82.532 45.8348 82.532 46.6916V51.8477H80.7166V46.9717C80.7166 46.4949 80.5899 46.1465 80.3365 45.9265C80.0831 45.7031 79.7731 45.5914 79.4063 45.5914C78.9696 45.5914 78.6278 45.7281 78.3811 46.0015C78.1377 46.2715 78.016 46.6233 78.016 47.0567V51.8477H76.2407V46.8967C76.2407 46.4999 76.1207 46.1832 75.8806 45.9465C75.6439 45.7098 75.3338 45.5914 74.9504 45.5914C74.6904 45.5914 74.4537 45.6581 74.2403 45.7914C74.0269 45.9215 73.8569 46.1065 73.7302 46.3465C73.6035 46.5833 73.5401 46.86 73.5401 47.1767V51.8477H71.7298ZM89.2646 48.617V44.1661H91.0749V51.8477H89.3196V50.4824H89.2396C89.0662 50.9125 88.7811 51.2642 88.3844 51.5376C87.991 51.811 87.5059 51.9477 86.9291 51.9477C86.4257 51.9477 85.9806 51.836 85.5938 51.6126C85.2104 51.3859 84.9103 51.0575 84.6936 50.6274C84.4769 50.194 84.3686 49.6706 84.3686 49.0571V44.1661H86.1789V48.777C86.1789 49.2638 86.3123 49.6505 86.579 49.9373C86.8457 50.224 87.1958 50.3674 87.6292 50.3674C87.896 50.3674 88.1543 50.3023 88.4044 50.1723C88.6544 50.0423 88.8595 49.8489 89.0195 49.5922C89.1829 49.3321 89.2646 49.0071 89.2646 48.617ZM94.7469 47.3467V51.8477H92.9365V44.1661H94.6669V45.4714H94.7569C94.9336 45.0413 95.2153 44.6995 95.6021 44.4462C95.9922 44.1928 96.4739 44.0661 97.0474 44.0661C97.5775 44.0661 98.0392 44.1794 98.4327 44.4062C98.8294 44.6329 99.1361 44.9613 99.3528 45.3914C99.5729 45.8214 99.6812 46.3432 99.6779 46.9567V51.8477H97.8675V47.2367C97.8675 46.7233 97.7342 46.3215 97.4675 46.0315C97.2041 45.7414 96.839 45.5964 96.3722 45.5964C96.0555 45.5964 95.7738 45.6664 95.5271 45.8064C95.2837 45.9431 95.092 46.1415 94.952 46.4016C94.8153 46.6616 94.7469 46.9767 94.7469 47.3467ZM101.518 51.8477V44.1661H103.329V51.8477H101.518ZM102.428 43.0759C102.142 43.0759 101.895 42.9809 101.688 42.7908C101.482 42.5975 101.378 42.3657 101.378 42.0957C101.378 41.8223 101.482 41.5906 101.688 41.4006C101.895 41.2072 102.142 41.1105 102.428 41.1105C102.719 41.1105 102.965 41.2072 103.169 41.4006C103.375 41.5906 103.479 41.8223 103.479 42.0957C103.479 42.3657 103.375 42.5975 103.169 42.7908C102.965 42.9809 102.719 43.0759 102.428 43.0759ZM109.026 44.1661V45.5664H104.61V44.1661H109.026ZM105.7 42.3257H107.511V49.5372C107.511 49.7806 107.547 49.9673 107.621 50.0973C107.697 50.224 107.797 50.3107 107.921 50.3574C108.044 50.404 108.181 50.4274 108.331 50.4274C108.444 50.4274 108.548 50.419 108.641 50.4024C108.738 50.3857 108.811 50.3707 108.861 50.3574L109.166 51.7726C109.069 51.806 108.931 51.8427 108.751 51.8827C108.574 51.9227 108.358 51.946 108.101 51.9527C107.647 51.966 107.239 51.8977 106.876 51.7476C106.512 51.5943 106.224 51.3576 106.01 51.0375C105.8 50.7174 105.697 50.3173 105.7 49.8373V42.3257ZM111.665 54.7282C111.419 54.7282 111.19 54.7082 110.98 54.6682C110.773 54.6316 110.608 54.5882 110.485 54.5382L110.905 53.1279C111.169 53.2046 111.404 53.2413 111.61 53.2379C111.817 53.2346 111.999 53.1696 112.155 53.0429C112.315 52.9195 112.45 52.7128 112.561 52.4228L112.716 52.0077L109.93 44.1661H111.85L113.621 49.9673H113.701L115.476 44.1661H117.401L114.326 52.7778C114.182 53.1846 113.992 53.533 113.756 53.8231C113.519 54.1164 113.229 54.3398 112.886 54.4932C112.546 54.6499 112.139 54.7282 111.665 54.7282ZM129.089 44.8763C129.005 44.6062 128.89 44.3645 128.744 44.1511C128.6 43.9344 128.427 43.7494 128.224 43.596C128.024 43.4426 127.794 43.3276 127.534 43.2509C127.273 43.1709 126.99 43.1309 126.683 43.1309C126.133 43.1309 125.643 43.2693 125.213 43.546C124.783 43.8227 124.445 44.2295 124.198 44.7662C123.954 45.2997 123.833 45.9498 123.833 46.7166C123.833 47.4901 123.954 48.1452 124.198 48.682C124.441 49.2188 124.78 49.6272 125.213 49.9073C125.646 50.184 126.15 50.3223 126.723 50.3223C127.243 50.3223 127.694 50.2223 128.074 50.0223C128.457 49.8222 128.752 49.5389 128.959 49.1721C129.166 48.802 129.269 48.3686 129.269 47.8719L129.689 47.9369H126.908V46.4866H131.064V47.7168C131.064 48.5937 130.878 49.3522 130.504 49.9923C130.131 50.6324 129.617 51.1258 128.964 51.4726C128.31 51.816 127.56 51.9877 126.713 51.9877C125.77 51.9877 124.941 51.776 124.228 51.3526C123.518 50.9258 122.963 50.3207 122.563 49.5372C122.166 48.7504 121.967 47.8168 121.967 46.7366C121.967 45.9098 122.084 45.1713 122.317 44.5212C122.554 43.871 122.884 43.3193 123.308 42.8658C123.731 42.4091 124.228 42.0624 124.798 41.8256C125.368 41.5856 125.988 41.4656 126.658 41.4656C127.225 41.4656 127.754 41.5489 128.244 41.7156C128.734 41.879 129.169 42.1124 129.549 42.4158C129.932 42.7191 130.247 43.0792 130.494 43.496C130.741 43.9127 130.903 44.3728 130.979 44.8763H129.089ZM134.989 52.0027C134.502 52.0027 134.064 51.916 133.674 51.7426C133.287 51.5659 132.98 51.3059 132.753 50.9625C132.53 50.6191 132.418 50.1957 132.418 49.6922C132.418 49.2588 132.498 48.9004 132.658 48.617C132.818 48.3336 133.037 48.1069 133.313 47.9369C133.59 47.7668 133.902 47.6385 134.249 47.5518C134.599 47.4618 134.96 47.3968 135.334 47.3568C135.784 47.3101 136.149 47.2684 136.429 47.2317C136.709 47.1917 136.912 47.1317 137.039 47.0517C137.169 46.9683 137.234 46.84 137.234 46.6666V46.6366C137.234 46.2599 137.123 45.9681 136.899 45.7614C136.676 45.5547 136.354 45.4514 135.934 45.4514C135.491 45.4514 135.139 45.5481 134.879 45.7414C134.622 45.9348 134.449 46.1632 134.359 46.4266L132.668 46.1865C132.802 45.7198 133.022 45.3297 133.328 45.0163C133.635 44.6995 134.01 44.4628 134.454 44.3061C134.897 44.1461 135.387 44.0661 135.924 44.0661C136.294 44.0661 136.662 44.1094 137.029 44.1961C137.396 44.2828 137.731 44.4262 138.034 44.6262C138.338 44.8229 138.581 45.0913 138.765 45.4314C138.951 45.7714 139.045 46.1965 139.045 46.7066V51.8477H137.304V50.7924H137.244C137.134 51.0058 136.979 51.2059 136.779 51.3926C136.582 51.5759 136.334 51.7243 136.034 51.8377C135.737 51.9477 135.389 52.0027 134.989 52.0027ZM135.459 50.6724C135.822 50.6724 136.137 50.6007 136.404 50.4574C136.671 50.3107 136.876 50.1173 137.019 49.8773C137.166 49.6372 137.239 49.3755 137.239 49.0921V48.1869C137.183 48.2336 137.086 48.2769 136.949 48.3169C136.816 48.357 136.666 48.392 136.499 48.422C136.332 48.452 136.167 48.4786 136.004 48.502C135.841 48.5253 135.699 48.5453 135.579 48.562C135.309 48.5987 135.067 48.6587 134.854 48.742C134.64 48.8254 134.472 48.9421 134.349 49.0921C134.225 49.2388 134.164 49.4288 134.164 49.6622C134.164 49.9956 134.285 50.2473 134.529 50.4174C134.772 50.5874 135.082 50.6724 135.459 50.6724ZM144.701 44.1661V45.5664H140.285V44.1661H144.701ZM141.375 42.3257H143.185V49.5372C143.185 49.7806 143.222 49.9673 143.295 50.0973C143.372 50.224 143.472 50.3107 143.596 50.3574C143.719 50.404 143.856 50.4274 144.006 50.4274C144.119 50.4274 144.222 50.419 144.316 50.4024C144.412 50.3857 144.486 50.3707 144.536 50.3574L144.841 51.7726C144.744 51.806 144.606 51.8427 144.426 51.8827C144.249 51.9227 144.032 51.946 143.776 51.9527C143.322 51.966 142.914 51.8977 142.55 51.7476C142.187 51.5943 141.898 51.3576 141.685 51.0375C141.475 50.7174 141.372 50.3173 141.375 49.8373V42.3257ZM148.19 47.3467V51.8477H146.38V41.6056H148.15V45.4714H148.24C148.42 45.038 148.699 44.6962 149.075 44.4462C149.455 44.1928 149.939 44.0661 150.526 44.0661C151.059 44.0661 151.524 44.1778 151.921 44.4012C152.318 44.6245 152.624 44.9513 152.841 45.3814C153.061 45.8114 153.171 46.3365 153.171 46.9567V51.8477H151.361V47.2367C151.361 46.72 151.227 46.3182 150.961 46.0315C150.697 45.7414 150.327 45.5964 149.851 45.5964C149.53 45.5964 149.244 45.6664 148.99 45.8064C148.74 45.9431 148.544 46.1415 148.4 46.4016C148.26 46.6616 148.19 46.9767 148.19 47.3467ZM158.417 51.9977C157.647 51.9977 156.982 51.8377 156.422 51.5176C155.865 51.1942 155.437 50.7374 155.137 50.1473C154.837 49.5539 154.686 48.8554 154.686 48.0519C154.686 47.2617 154.837 46.5683 155.137 45.9715C155.44 45.3714 155.863 44.9046 156.407 44.5712C156.95 44.2345 157.589 44.0661 158.322 44.0661C158.796 44.0661 159.242 44.1428 159.662 44.2961C160.086 44.4462 160.459 44.6795 160.783 44.9963C161.109 45.313 161.366 45.7164 161.553 46.2065C161.74 46.6933 161.833 47.2734 161.833 47.9469V48.502H155.537V47.2817H160.098C160.094 46.935 160.019 46.6266 159.873 46.3565C159.726 46.0832 159.521 45.8681 159.257 45.7114C158.997 45.5547 158.694 45.4764 158.347 45.4764C157.977 45.4764 157.652 45.5664 157.372 45.7464C157.092 45.9231 156.874 46.1565 156.717 46.4466C156.564 46.7333 156.485 47.0484 156.482 47.3918V48.457C156.482 48.9037 156.564 49.2871 156.727 49.6072C156.89 49.9239 157.119 50.1673 157.412 50.3374C157.705 50.5041 158.049 50.5874 158.442 50.5874C158.706 50.5874 158.944 50.5507 159.157 50.4774C159.371 50.4007 159.556 50.289 159.713 50.1423C159.869 49.9956 159.988 49.8139 160.068 49.5972L161.758 49.7872C161.651 50.234 161.448 50.6241 161.148 50.9575C160.851 51.2875 160.471 51.5443 160.008 51.7276C159.544 51.9077 159.014 51.9977 158.417 51.9977ZM163.364 51.8477V44.1661H165.12V45.4464H165.2C165.34 45.0029 165.58 44.6612 165.92 44.4212C166.263 44.1778 166.655 44.0561 167.095 44.0561C167.195 44.0561 167.307 44.0611 167.43 44.0711C167.557 44.0778 167.662 44.0894 167.745 44.1061V45.7714C167.669 45.7448 167.547 45.7214 167.38 45.7014C167.217 45.6781 167.059 45.6664 166.905 45.6664C166.575 45.6664 166.278 45.7381 166.015 45.8815C165.755 46.0215 165.55 46.2165 165.4 46.4666C165.25 46.7166 165.175 47.005 165.175 47.3317V51.8477H163.364ZM168.948 51.8477V44.1661H170.758V51.8477H168.948ZM169.858 43.0759C169.572 43.0759 169.325 42.9809 169.118 42.7908C168.911 42.5975 168.808 42.3657 168.808 42.0957C168.808 41.8223 168.911 41.5906 169.118 41.4006C169.325 41.2072 169.572 41.1105 169.858 41.1105C170.148 41.1105 170.395 41.2072 170.598 41.4006C170.805 41.5906 170.909 41.8223 170.909 42.0957C170.909 42.3657 170.805 42.5975 170.598 42.7908C170.395 42.9809 170.148 43.0759 169.858 43.0759ZM174.43 47.3467V51.8477H172.62V44.1661H174.35V45.4714H174.44C174.617 45.0413 174.899 44.6995 175.286 44.4462C175.676 44.1928 176.157 44.0661 176.731 44.0661C177.261 44.0661 177.723 44.1794 178.116 44.4062C178.513 44.6329 178.82 44.9613 179.036 45.3914C179.256 45.8214 179.365 46.3432 179.361 46.9567V51.8477H177.551V47.2367C177.551 46.7233 177.418 46.3215 177.151 46.0315C176.888 45.7414 176.523 45.5964 176.056 45.5964C175.739 45.5964 175.457 45.6664 175.211 45.8064C174.967 45.9431 174.776 46.1415 174.636 46.4016C174.499 46.6616 174.43 46.9767 174.43 47.3467ZM184.543 54.8883C183.892 54.8883 183.334 54.7999 182.867 54.6232C182.4 54.4498 182.025 54.2165 181.742 53.9231C181.459 53.6297 181.262 53.3046 181.152 52.9479L182.782 52.5528C182.856 52.7028 182.962 52.8512 183.102 52.9979C183.242 53.1479 183.431 53.2713 183.667 53.368C183.907 53.468 184.209 53.518 184.573 53.518C185.086 53.518 185.511 53.393 185.848 53.1429C186.185 52.8962 186.353 52.4895 186.353 51.9227V50.4674H186.263C186.17 50.6541 186.033 50.8458 185.853 51.0425C185.676 51.2392 185.441 51.4042 185.148 51.5376C184.858 51.671 184.493 51.7376 184.052 51.7376C183.462 51.7376 182.927 51.5993 182.447 51.3226C181.97 51.0425 181.59 50.6257 181.307 50.0723C181.027 49.5155 180.887 48.8187 180.887 47.9819C180.887 47.1384 181.027 46.4266 181.307 45.8464C181.59 45.263 181.972 44.8212 182.452 44.5212C182.932 44.2178 183.467 44.0661 184.057 44.0661C184.508 44.0661 184.878 44.1428 185.168 44.2961C185.461 44.4462 185.694 44.6279 185.868 44.8412C186.041 45.0513 186.173 45.2497 186.263 45.4364H186.363V44.1661H188.148V51.9727C188.148 52.6295 187.992 53.1729 187.678 53.603C187.365 54.0331 186.936 54.3548 186.393 54.5682C185.849 54.7816 185.233 54.8883 184.543 54.8883ZM184.558 50.3173C184.941 50.3173 185.268 50.224 185.538 50.0373C185.808 49.8506 186.013 49.5822 186.153 49.2321C186.293 48.8821 186.363 48.462 186.363 47.9719C186.363 47.4884 186.293 47.065 186.153 46.7016C186.016 46.3382 185.813 46.0565 185.543 45.8564C185.276 45.6531 184.948 45.5514 184.558 45.5514C184.154 45.5514 183.817 45.6564 183.547 45.8665C183.277 46.0765 183.074 46.3649 182.937 46.7316C182.8 47.095 182.732 47.5084 182.732 47.9719C182.732 48.442 182.8 48.8537 182.937 49.2071C183.077 49.5572 183.282 49.8306 183.552 50.0273C183.826 50.2207 184.161 50.3173 184.558 50.3173Z" fill="#2F4052"/>
<rect x="39.127" y="65.1332" width="58.0917" height="5.28106" rx="2.64053" fill="#51D35E"/>
<rect x="107.781" y="65.1332" width="24.645" height="5.28106" rx="2.64053" fill="#C7D7F1"/>
<defs>
<filter id="filter0_d_745_1857" x="7.43843" y="114.423" width="82.7367" height="82.7367" filterUnits="userSpaceOnUse" color-interpolation-filters="sRGB">
<feFlood flood-opacity="0" result="BackgroundImageFix"/>
<feColorMatrix in="SourceAlpha" type="matrix" values="0 0 0 0 0 0 0 0 0 0 0 0 0 0 0 0 0 0 127 0" result="hardAlpha"/>
<feOffset dy="8.80177"/>
<feGaussianBlur stdDeviation="13.2027"/>
<feComposite in2="hardAlpha" operator="out"/>
<feColorMatrix type="matrix" values="0 0 0 0 0 0 0 0 0 0 0 0 0 0 0 0 0 0 0.16 0"/>
<feBlend mode="normal" in2="BackgroundImageFix" result="effect1_dropShadow_745_1857"/>
<feBlend mode="normal" in="SourceGraphic" in2="effect1_dropShadow_745_1857" result="shape"/>
</filter>
<filter id="filter1_d_745_1857" x="60.2491" y="125.865" width="228.846" height="70.4142" filterUnits="userSpaceOnUse" color-interpolation-filters="sRGB">
<feFlood flood-opacity="0" result="BackgroundImageFix"/>
<feColorMatrix in="SourceAlpha" type="matrix" values="0 0 0 0 0 0 0 0 0 0 0 0 0 0 0 0 0 0 127 0" result="hardAlpha"/>
<feOffset dy="14.0828"/>
<feGaussianBlur stdDeviation="8.80177"/>
<feColorMatrix type="matrix" values="0 0 0 0 0.65 0 0 0 0 0.647292 0 0 0 0 0.647292 0 0 0 0.15 0"/>
<feBlend mode="normal" in2="BackgroundImageFix" result="effect1_dropShadow_745_1857"/>
<feBlend mode="normal" in="SourceGraphic" in2="effect1_dropShadow_745_1857" result="shape"/>
</filter>
<filter id="filter2_d_745_1857" x="0.396452" y="12.3225" width="309.822" height="107.382" filterUnits="userSpaceOnUse" color-interpolation-filters="sRGB">
<feFlood flood-opacity="0" result="BackgroundImageFix"/>
<feColorMatrix in="SourceAlpha" type="matrix" values="0 0 0 0 0 0 0 0 0 0 0 0 0 0 0 0 0 0 127 0" result="hardAlpha"/>
<feOffset dy="12.3225"/>
<feGaussianBlur stdDeviation="8.80177"/>
<feColorMatrix type="matrix" values="0 0 0 0 0.283333 0 0 0 0 0.168935 0 0 0 0 0.121597 0 0 0 0.07 0"/>
<feBlend mode="normal" in2="BackgroundImageFix" result="effect1_dropShadow_745_1857"/>
<feBlend mode="normal" in="SourceGraphic" in2="effect1_dropShadow_745_1857" result="shape"/>
</filter>
<linearGradient id="paint0_linear_745_1857" x1="50.0853" y1="15.0074" x2="344.024" y2="108.675" gradientUnits="userSpaceOnUse">
<stop stop-color="#C7D7F1"/>
<stop offset="1" stop-color="#ADC8F5"/>
</linearGradient>
</defs>
</svg>
