<svg width="182" height="54" viewBox="0 0 182 54" fill="none" xmlns="http://www.w3.org/2000/svg">
<path d="M175.025 1.07103C178.13 1.07103 180.648 3.5885 180.648 6.69395V46.8576C180.648 49.9631 178.13 52.4806 175.025 52.4806H7.67611C4.57066 52.4806 2.05319 49.9631 2.05319 46.8576V6.69395C2.05319 3.5885 4.57066 1.07103 7.67611 1.07103H175.025ZM175.025 0H7.67611C3.97915 0 0.982162 2.99698 0.982162 6.69395V46.8576C0.982162 50.5546 3.97915 53.5516 7.67611 53.5516H175.025C178.722 53.5516 181.719 50.5546 181.719 46.8576V6.69395C181.719 2.99698 178.722 0 175.025 0Z" fill="#A6A6A6"/>
</svg>
