<svg width="516" height="368" viewBox="0 0 516 368" fill="none" xmlns="http://www.w3.org/2000/svg">
<rect width="516" height="368" fill="#F9F9F9"/>
<path d="M155.622 44.8871C155.622 44.8871 104.562 15.6143 62.9356 48.6633C21.3091 81.7124 64.081 121.001 87.7235 108.115C111.366 95.2303 83.8429 59.4745 60.8379 71.5893C37.8328 83.7041 34.8065 134.417 65.1188 162.097C90.3087 185.097 189.254 215.355 241.432 245.488C241.432 245.488 283.096 264.156 333.782 309.565" stroke="#2E353A" stroke-linecap="round" stroke-linejoin="round" stroke-dasharray="2 4"/>
<path d="M85.7402 56.53V30.74L159.52 42.6L85.7402 56.53Z" fill="white" stroke="#2E353A" stroke-width="1.2629" stroke-linecap="round" stroke-linejoin="round"/>
<path d="M89.3502 35.38L85.7402 56.53L159.52 42.6L89.3502 35.38Z" fill="#489A4D" stroke="#2E353A" stroke-width="1.2629" stroke-linecap="round" stroke-linejoin="round"/>
<path d="M89.3496 35.38L96.0596 48.79L159.52 42.6L89.3496 35.38Z" fill="white" stroke="#2E353A" stroke-width="1.2629" stroke-linecap="round" stroke-linejoin="round"/>
<path d="M85.74 30.74L78 23L159.52 42.6L85.74 30.74Z" fill="white" stroke="#2E353A" stroke-width="1.2629" stroke-linecap="round" stroke-linejoin="round"/>
<path d="M112.16 56.05L118.56 54.75" stroke="#2E353A" stroke-linecap="round" stroke-linejoin="round"/>
<path d="M89.6797 60.6201L105.77 57.3501" stroke="#2E353A" stroke-linecap="round" stroke-linejoin="round"/>
<path d="M125.893 175.757L373.351 173.963L380.244 342.202L124.004 339.831L125.893 175.757Z" fill="#C7D7F1"/>
<path d="M125.881 175.757L243.006 80.9891C245.412 79.0443 248.416 77.9886 251.51 78.0001C254.604 78.0116 257.599 79.0894 259.991 81.052L373.35 173.963" fill="#C7D7F1"/>
<g opacity="0.3">
<path d="M125.881 175.757L243.006 80.9892C245.412 79.0444 248.416 77.9887 251.51 78.0002C254.604 78.0117 257.599 79.0896 259.991 81.0522L373.35 173.963" fill="black"/>
</g>
<path d="M124.003 339.831C123.699 339.537 143.507 317.904 168.256 291.518C193.005 265.133 213.305 243.972 213.62 244.255C213.935 244.538 194.117 266.171 169.368 292.567C144.619 318.963 124.318 340.114 124.003 339.831Z" fill="#263238"/>
<path d="M380.244 342.202C379.929 342.485 360.636 321.292 337.156 294.875C313.677 268.458 294.897 246.804 295.191 246.521C295.485 246.238 314.799 267.43 338.279 293.858C361.758 320.285 380.58 341.918 380.244 342.202Z" fill="#263238"/>
<g opacity="0.5">
<path d="M373.351 173.963L249.081 273.232L125.893 175.757" fill="black"/>
</g>
<path d="M138.344 184.947L137.967 107.669L354.644 105.098L357.088 186.416L249.07 271.931L138.344 184.947Z" fill="#FAFAFA"/>
<path d="M138.345 184.947C138.345 184.947 139.048 185.472 140.38 186.511L146.256 191.085L168.655 208.574L249.238 271.752H248.965L356.952 186.206L356.848 186.427C356.386 170.921 355.893 154.638 355.389 138.083C355.064 126.931 354.728 115.915 354.403 105.109L354.676 105.371L137.999 107.836L138.167 107.668C138.251 131.977 138.324 151.291 138.366 164.531C138.366 171.151 138.366 176.25 138.366 179.702V183.615C138.366 184.496 138.366 184.947 138.366 184.947C138.366 184.947 138.366 184.507 138.366 183.636C138.366 182.765 138.366 181.454 138.366 179.744C138.366 176.292 138.293 171.204 138.24 164.594C138.156 151.333 138.03 132.008 137.873 107.668V107.49H138.041L354.728 104.836H354.991V105.109C355.316 115.904 355.641 126.92 355.977 138.072C356.48 154.638 356.963 170.91 357.435 186.427V186.563L357.33 186.647L249.27 272.12L249.133 272.225L248.997 272.12L168.466 208.731L146.203 191.158L140.328 186.542C139.006 185.493 138.345 184.947 138.345 184.947Z" fill="#263238"/>
<path d="M320.401 144.021C320.401 144.168 287.259 144.493 246.395 144.734C205.531 144.976 172.379 145.07 172.379 144.913C172.379 144.755 205.51 144.44 246.395 144.189C287.28 143.937 320.401 143.863 320.401 144.021Z" fill="#263238"/>
<path d="M320.401 165.843C320.401 166 287.259 166.325 246.395 166.567C205.531 166.808 172.379 166.892 172.379 166.745C172.379 166.598 205.51 166.273 246.395 166.021C287.28 165.769 320.401 165.696 320.401 165.843Z" fill="#263238"/>
<path d="M320.401 191.011C320.401 191.158 287.259 191.484 246.395 191.735C205.531 191.987 172.379 192.061 172.379 191.903C172.379 191.746 205.51 191.431 246.395 191.19C287.28 190.948 320.401 190.854 320.401 191.011Z" fill="#263238"/>
<path d="M320.401 216.17C320.401 216.327 288.791 216.631 249.795 216.872C210.799 217.114 179.188 217.177 179.178 217.03C179.167 216.883 210.788 216.568 249.795 216.327C288.801 216.086 320.401 216.023 320.401 216.17Z" fill="#263238"/>
<path d="M292.683 238.254C292.399 238.302 292.111 238.323 291.823 238.317L289.326 238.39L280.177 238.537L249.973 238.967C238.181 239.166 227.49 239.229 219.758 239.24H210.609H208.112C207.825 239.245 207.537 239.228 207.252 239.187C207.536 239.139 207.824 239.118 208.112 239.125L210.609 239.062L219.758 238.904L249.962 238.474C261.755 238.275 272.445 238.212 280.167 238.201H289.326H291.823C292.11 238.201 292.398 238.218 292.683 238.254Z" fill="#263238"/>
<path d="M264.786 259.488C264.786 259.635 257.726 259.761 249.049 259.761C240.373 259.761 233.312 259.635 233.312 259.488C233.312 259.341 240.384 259.215 249.049 259.215C257.715 259.215 264.786 259.331 264.786 259.488Z" fill="#263238"/>
<path d="M381.141 74.86C381.141 74.86 376.681 77.38 369.461 81.05" stroke="#2E353A" stroke-linecap="round" stroke-linejoin="round" stroke-dasharray="2 4"/>
<path d="M386.15 74.49L376.14 50.71L448.73 33L386.15 74.49Z" fill="white" stroke="#2E353A" stroke-width="1.2629" stroke-linecap="round" stroke-linejoin="round"/>
<path d="M381.27 53.59L386.15 74.49L448.73 33L381.27 53.59Z" fill="#489A4D" stroke="#2E353A" stroke-width="1.2629" stroke-linecap="round" stroke-linejoin="round"/>
<path d="M381.27 53.59L392.66 63.35L448.73 33L381.27 53.59Z" fill="white" stroke="#2E353A" stroke-width="1.2629" stroke-linecap="round" stroke-linejoin="round"/>
<path d="M376.14 50.71L366 46.59L448.73 33L376.14 50.71Z" fill="white" stroke="#2E353A" stroke-width="1.2629" stroke-linecap="round" stroke-linejoin="round"/>
<path d="M400.25 70.79L397.9 72.23" stroke="#2E353A" stroke-linecap="round" stroke-linejoin="round"/>
<path d="M413.07 62.9299L405.2 67.7499" stroke="#2E353A" stroke-linecap="round" stroke-linejoin="round"/>
</svg>
