<svg width="161" height="42" viewBox="0 0 161 42" fill="none" xmlns="http://www.w3.org/2000/svg">
<path fill-rule="evenodd" clip-rule="evenodd" d="M0 42C11.598 42 21 32.598 21 21C21 9.40202 11.598 0 0 0V42Z" fill="#394CFE"/>
<path d="M35.0227 32.5V9.22727H50.7045V13.2841H39.9432V18.8295H49.8977V22.8864H39.9432V28.4432H50.75V32.5H35.0227ZM70.7983 15.0455L64.696 32.5H59.2415L53.1392 15.0455H58.2528L61.8778 27.5341H62.0597L65.6733 15.0455H70.7983ZM80.6676 32.8409C78.8722 32.8409 77.3267 32.4773 76.0312 31.75C74.7434 31.0152 73.7509 29.9773 73.054 28.6364C72.357 27.2879 72.0085 25.6932 72.0085 23.8523C72.0085 22.0568 72.357 20.4811 73.054 19.125C73.7509 17.7689 74.732 16.7121 75.9972 15.9545C77.2699 15.197 78.7623 14.8182 80.4744 14.8182C81.6259 14.8182 82.6979 15.0038 83.6903 15.375C84.6903 15.7386 85.5616 16.2879 86.304 17.0227C87.054 17.7576 87.6373 18.6818 88.054 19.7955C88.4706 20.9015 88.679 22.197 88.679 23.6818V25.0114H73.9403V22.0114H84.1222C84.1222 21.3144 83.9706 20.697 83.6676 20.1591C83.3646 19.6212 82.9441 19.2008 82.4062 18.8977C81.8759 18.5871 81.2585 18.4318 80.554 18.4318C79.8191 18.4318 79.1676 18.6023 78.5994 18.9432C78.0388 19.2765 77.5994 19.7273 77.2812 20.2955C76.9631 20.8561 76.8002 21.4811 76.7926 22.1705V25.0227C76.7926 25.8864 76.9517 26.6326 77.2699 27.2614C77.5956 27.8902 78.054 28.375 78.6449 28.7159C79.2358 29.0568 79.9366 29.2273 80.7472 29.2273C81.285 29.2273 81.7775 29.1515 82.2244 29C82.6714 28.8485 83.054 28.6212 83.3722 28.3182C83.6903 28.0152 83.9328 27.6439 84.0994 27.2045L88.5767 27.5C88.3494 28.5758 87.8835 29.5152 87.179 30.3182C86.482 31.1136 85.5805 31.7348 84.4744 32.1818C83.3759 32.6212 82.107 32.8409 80.6676 32.8409ZM96.679 22.4091V32.5H91.8381V15.0455H96.4517V18.125H96.6562C97.0426 17.1098 97.6903 16.3068 98.5994 15.7159C99.5085 15.1174 100.611 14.8182 101.906 14.8182C103.118 14.8182 104.175 15.0833 105.077 15.6136C105.978 16.1439 106.679 16.9015 107.179 17.8864C107.679 18.8636 107.929 20.0303 107.929 21.3864V32.5H103.088V22.25C103.096 21.1818 102.823 20.3485 102.27 19.75C101.717 19.1439 100.955 18.8409 99.9858 18.8409C99.3343 18.8409 98.7585 18.9811 98.2585 19.2614C97.7661 19.5417 97.3797 19.9508 97.0994 20.4886C96.8267 21.0189 96.6866 21.6591 96.679 22.4091ZM121.028 15.0455V18.6818H110.517V15.0455H121.028ZM112.903 10.8636H117.744V27.1364C117.744 27.5833 117.813 27.9318 117.949 28.1818C118.085 28.4242 118.275 28.5947 118.517 28.6932C118.767 28.7917 119.055 28.8409 119.381 28.8409C119.608 28.8409 119.835 28.822 120.062 28.7841C120.29 28.7386 120.464 28.7045 120.585 28.6818L121.347 32.2841C121.104 32.3598 120.763 32.447 120.324 32.5455C119.884 32.6515 119.35 32.7159 118.722 32.7386C117.555 32.7841 116.532 32.6288 115.653 32.2727C114.782 31.9167 114.104 31.3636 113.619 30.6136C113.134 29.8636 112.896 28.9167 112.903 27.7727V10.8636ZM131.949 32.8409C130.153 32.8409 128.608 32.4773 127.312 31.75C126.025 31.0152 125.032 29.9773 124.335 28.6364C123.638 27.2879 123.29 25.6932 123.29 23.8523C123.29 22.0568 123.638 20.4811 124.335 19.125C125.032 17.7689 126.013 16.7121 127.278 15.9545C128.551 15.197 130.044 14.8182 131.756 14.8182C132.907 14.8182 133.979 15.0038 134.972 15.375C135.972 15.7386 136.843 16.2879 137.585 17.0227C138.335 17.7576 138.919 18.6818 139.335 19.7955C139.752 20.9015 139.96 22.197 139.96 23.6818V25.0114H125.222V22.0114H135.403C135.403 21.3144 135.252 20.697 134.949 20.1591C134.646 19.6212 134.225 19.2008 133.688 18.8977C133.157 18.5871 132.54 18.4318 131.835 18.4318C131.1 18.4318 130.449 18.6023 129.881 18.9432C129.32 19.2765 128.881 19.7273 128.562 20.2955C128.244 20.8561 128.081 21.4811 128.074 22.1705V25.0227C128.074 25.8864 128.233 26.6326 128.551 27.2614C128.877 27.8902 129.335 28.375 129.926 28.7159C130.517 29.0568 131.218 29.2273 132.028 29.2273C132.566 29.2273 133.059 29.1515 133.506 29C133.953 28.8485 134.335 28.6212 134.653 28.3182C134.972 28.0152 135.214 27.6439 135.381 27.2045L139.858 27.5C139.631 28.5758 139.165 29.5152 138.46 30.3182C137.763 31.1136 136.862 31.7348 135.756 32.1818C134.657 32.6212 133.388 32.8409 131.949 32.8409ZM151.074 32.8409C149.278 32.8409 147.733 32.4773 146.438 31.75C145.15 31.0152 144.157 29.9773 143.46 28.6364C142.763 27.2879 142.415 25.6932 142.415 23.8523C142.415 22.0568 142.763 20.4811 143.46 19.125C144.157 17.7689 145.138 16.7121 146.403 15.9545C147.676 15.197 149.169 14.8182 150.881 14.8182C152.032 14.8182 153.104 15.0038 154.097 15.375C155.097 15.7386 155.968 16.2879 156.71 17.0227C157.46 17.7576 158.044 18.6818 158.46 19.7955C158.877 20.9015 159.085 22.197 159.085 23.6818V25.0114H144.347V22.0114H154.528C154.528 21.3144 154.377 20.697 154.074 20.1591C153.771 19.6212 153.35 19.2008 152.812 18.8977C152.282 18.5871 151.665 18.4318 150.96 18.4318C150.225 18.4318 149.574 18.6023 149.006 18.9432C148.445 19.2765 148.006 19.7273 147.688 20.2955C147.369 20.8561 147.206 21.4811 147.199 22.1705V25.0227C147.199 25.8864 147.358 26.6326 147.676 27.2614C148.002 27.8902 148.46 28.375 149.051 28.7159C149.642 29.0568 150.343 29.2273 151.153 29.2273C151.691 29.2273 152.184 29.1515 152.631 29C153.078 28.8485 153.46 28.6212 153.778 28.3182C154.097 28.0152 154.339 27.6439 154.506 27.2045L158.983 27.5C158.756 28.5758 158.29 29.5152 157.585 30.3182C156.888 31.1136 155.987 31.7348 154.881 32.1818C153.782 32.6212 152.513 32.8409 151.074 32.8409Z" fill="#171717"/>
</svg>
