<svg width="159" height="52" viewBox="0 0 159 52" fill="none" xmlns="http://www.w3.org/2000/svg">
<path d="M10.6167 51.3801C10.2077 51.3801 9.80849 51.3749 9.40265 51.3658C8.56192 51.3548 7.72316 51.2819 6.89324 51.1474C6.11938 51.0145 5.36972 50.7673 4.66899 50.4139C3.97468 50.0634 3.34141 49.6039 2.79345 49.0529C2.23755 48.5084 1.77475 47.8768 1.42336 47.1833C1.06811 46.4852 0.822256 45.737 0.694361 44.9646C0.556246 44.1347 0.481519 43.2956 0.470827 42.4544C0.462315 42.172 0.451172 41.2319 0.451172 41.2319V10.3051C0.451172 10.3051 0.46304 9.37949 0.470894 9.10754C0.481132 8.26769 0.555424 7.42984 0.693126 6.60123C0.821257 5.82677 1.0673 5.07638 1.42275 4.37603C1.77284 3.68296 2.23308 3.05094 2.78562 2.50447C3.33755 1.95281 3.97284 1.4909 4.66833 1.1356C5.36746 0.783339 6.1157 0.537857 6.88799 0.407375C7.72064 0.271577 8.56231 0.198157 9.40595 0.187733L10.6174 0.171387H148.589L149.815 0.188389C150.651 0.198295 151.485 0.27106 152.31 0.406063C153.09 0.538182 153.846 0.785376 154.553 1.13952C155.947 1.85557 157.08 2.98842 157.795 4.3793C158.145 5.07481 158.387 5.81908 158.514 6.58685C158.653 7.42226 158.731 8.2667 158.747 9.11343C158.751 9.49258 158.751 9.89984 158.751 10.3051C158.762 10.8072 158.762 11.285 158.762 11.7668V39.7859C158.762 40.2723 158.762 40.7469 158.751 41.2254C158.751 41.6607 158.751 42.0596 158.746 42.47C158.73 43.3017 158.654 44.131 158.517 44.9515C158.391 45.7294 158.147 46.4835 157.792 47.1873C157.438 47.8733 156.978 48.4994 156.428 49.0424C155.88 49.5964 155.245 50.0586 154.549 50.4113C153.844 50.7675 153.089 51.0156 152.31 51.1474C151.48 51.2826 150.641 51.3556 149.8 51.3658C149.407 51.3749 148.995 51.3801 148.596 51.3801L147.14 51.3828L10.6167 51.3801Z" fill="#1A1A1A"/>
</svg>
